<?xml version="1.0" encoding="UTF-8"?>
<svg width="16px" height="16px" viewBox="0 0 16 16" version="1.1" xmlns="http://www.w3.org/2000/svg" xmlns:xlink="http://www.w3.org/1999/xlink">
    <!-- Generator: Sketch 45.2 (43514) - http://www.bohemiancoding.com/sketch -->
    <title>icon-person</title>
    <desc>Created with Sketch.</desc>
    <defs></defs>
    <g id="Symbols" stroke="none" stroke-width="1" fill="none" fill-rule="evenodd">
        <g id="UI/headerAlfaMenuLogged" transform="translate(-243.000000, -30.000000)" fill-rule="nonzero" fill="#FFFFFF">
            <g id="Group" transform="translate(243.000000, 29.000000)">
                <path d="M12.4817778,13.5982222 C12.2604444,13.5004444 12.0604444,13.5235556 11.8995556,13.4426667 C10.7155556,12.8524444 10.6666667,12.5555556 10.6666667,10.7777778 L10.3617778,10.7777778 C11.6933333,9.65333333 12.4444444,7.624 12.4444444,5.63466667 C12.4444444,3.64533333 11.9831111,1 8,1 C4.016,1 3.55555556,3.64533333 3.55555556,5.63466667 C3.55555556,7.624 4.30666667,9.65333333 5.63822222,10.7777778 L5.33333333,10.7777778 C5.33333333,12.5555556 5.28444444,12.8524444 4.10133333,13.4435556 C3.93866667,13.5244444 3.73955556,13.3902222 3.51822222,13.4871111 C2.20266667,14.0675556 0,15.2222222 0,17 L0.888888889,17 C0.888888889,15.2222222 2.68711111,14.936 3.87644444,14.4115556 C4.11288889,14.3075556 4.32444444,14.3244444 4.49777778,14.2382222 C5.98666667,13.4951111 6.18933333,12.12 6.21688889,11.1857778 C6.744,11.4888889 7.33955556,11.6666667 8,11.6666667 C8.66044444,11.6666667 9.256,11.4888889 9.78311111,11.1857778 C9.81066667,12.12 10.0133333,13.496 11.5013333,14.2382222 C11.6737778,14.3244444 11.8871111,14.1964444 12.1226667,14.3004444 C13.3128889,14.8248889 15.1111111,15.2222222 15.1111111,17 L16,17 C16,15.2222222 13.7973333,14.1786667 12.4817778,13.5982222 Z M4.44444444,5.63466667 C4.44444444,2.93955556 5.44177778,1.88888889 8,1.88888889 C10.5591111,1.88888889 11.5555556,2.93955556 11.5555556,5.63466667 C11.5555556,7.77066667 10.4524444,10.7777778 8,10.7777778 C5.54755556,10.7777778 4.44444444,7.77066667 4.44444444,5.63466667 Z" id="icon-person"></path>
            </g>
        </g>
    </g>
</svg>