<?xml version="1.0" encoding="UTF-8"?>
<svg width="43px" height="43px" viewBox="0 0 43 43" version="1.1" xmlns="http://www.w3.org/2000/svg" xmlns:xlink="http://www.w3.org/1999/xlink">
    <!-- Generator: Sketch 45.2 (43514) - http://www.bohemiancoding.com/sketch -->
    <title>Fill 5</title>
    <desc>Created with Sketch.</desc>
    <defs></defs>
    <g id="Page-1" stroke="none" stroke-width="1" fill="none" fill-rule="evenodd">
        <path d="M21.257,37.497 C29.213,37.497 32.77,31.166 32.77,24.893 C32.77,16.059 26.636,5.987 21.257,5.987 C15.894,5.987 9.756,16.059 9.756,24.893 C9.756,31.166 13.314,37.497 21.257,37.497 M42.521,38.749 C42.521,41.094 40.614,43 38.268,43 L4.252,43 C1.907,43 0,41.094 0,38.747 L0,4.73 C0,2.384 1.907,0.48 4.252,0.48 L38.268,0.484 C40.614,0.484 42.521,2.384 42.521,4.73 L42.521,38.749" id="Fill-5" fill="#CF232A"></path>
    </g>
</svg>