<?xml version="1.0" encoding="UTF-8"?>
<svg width="43px" height="16px" viewBox="0 0 43 16" version="1.1" xmlns="http://www.w3.org/2000/svg" xmlns:xlink="http://www.w3.org/1999/xlink">
    <!-- Generator: Sketch 45.2 (43514) - http://www.bohemiancoding.com/sketch -->
    <title>logoTele2</title>
    <desc>Created with Sketch.</desc>
    <defs></defs>
    <g id="Page-1" stroke="none" stroke-width="1" fill="none" fill-rule="evenodd">
        <g id="logoTele2" fill-rule="nonzero" fill="#1A1919">
            <path d="M30.7394276,12.7504783 L26.1272032,12.8815074 L26.1272032,16 L30.7394276,16 L30.7394276,12.7504783 Z M29.1408726,7.14243262 L26.1272032,7.40449083 L26.1272032,10.5753952 L29.1408726,10.4181602 L29.1408726,7.14243262 Z M25.5506751,2.05850341 L22.4059767,2.47779654 L22.4059767,16 L25.5506751,16 L25.5506751,2.05850341 Z M30.7394276,1.32474043 L26.1272032,1.95368013 L26.1272032,5.07217279 L30.7394276,4.5742622 L30.7394276,1.32474043 Z M38.391527,4.20738071 C38.758409,4.96734951 38.365321,6.12040561 37.474324,7.16863844 C36.085415,8.79339932 32.3903943,12.1477444 32.3903943,12.1477444 L37.68397,11.9643037 C40.907286,8.81960514 42.086548,6.90658023 42.296195,4.52185055 C42.401018,3.23776534 41.929313,2.03229759 41.038315,1.16750551 C40.042494,0.224095969 38.574968,-0.168991343 36.976413,0.0668610423 L36.976413,3.52602937 C37.631558,3.47361773 38.155675,3.70947011 38.391527,4.20738071 Z M35.220623,6.53969874 C35.063388,4.44323309 35.718534,3.9453225 36.347473,3.65705847 L36.347473,0.145478509 C33.228981,0.800624019 31.709043,3.10673624 31.8924837,6.85416859 L35.220623,6.53969874 Z M42.479635,16 L42.479635,12.4098026 L31.7352488,12.7242725 L31.7614546,16 L42.479635,16 Z M4.2977546,16 L4.2977546,7.84998978 L1.9916424,8.08584216 L1.9916424,16 L4.2977546,16 Z M9.932006,6.85416859 L13.4173802,6.4872871 L13.4173802,3.76188176 L9.932006,4.23358653 L9.932006,6.85416859 Z M9.932006,16 L13.4173802,16 L13.4173802,13.2745947 L9.932006,13.379418 L9.932006,16 Z M17.0599892,3.23776534 L14.3345839,3.63085265 L14.3345839,16 L17.0599892,16 L17.0599892,3.23776534 Z M17.5841057,16 L21.5673904,16 L21.5673904,13.0387423 L17.5841057,13.1435656 L17.5841057,16 Z M6.2369853,4.75770294 L0,5.64870084 L0.0262058,7.95481306 L6.2369853,7.27346172 L6.2369853,4.75770294 Z M12.2119124,8.60995858 L9.932006,8.79339932 L9.932006,11.4663931 L12.2119124,11.335364 L12.2119124,8.60995858 Z M9.4865071,4.31220399 L7.1017774,4.65287966 L7.1017774,16 L9.4865071,16 L9.4865071,4.31220399 L9.4865071,4.31220399 Z" id="Fill-3"></path>
        </g>
    </g>
</svg>