<svg xmlns="http://www.w3.org/2000/svg" viewBox="0 0 335.94 335"><defs><style>.cls-1{fill:#2cb56d;}.cls-2{fill:#fff;}</style></defs><title>Asset 1</title><g id="Layer_2" data-name="Layer 2"><g id="Layer_1-2" data-name="Layer 1"><path class="cls-1" d="M179.94,335h-24c-2.84-.65-3.58-2.39-3.57-5.28q.15-68.46.08-136.93c0-1.47.2-2.94.34-5h18.15c12.59,0,17.49-4.92,17.49-17.53q0-80.71,0-161.41c0-2.14,0-4.29,0-6.6a29.83,29.83,0,0,1,3.83,0C279,14.86,341.39,92.93,334.76,180.5A167.07,167.07,0,0,1,202.92,331.1C195.33,332.71,187.6,333.71,179.94,335Zm-15.48-97.3a21.16,21.16,0,0,0,20.37,21.1c11.18.34,21.1-9.47,21.11-20.88a20.74,20.74,0,0,0-41.48-.22Zm90.47-.06a20.74,20.74,0,0,0-41.48.34c.06,11.47,9.91,21.18,21.13,20.82A21.22,21.22,0,0,0,254.93,237.64Zm7.52.45a20.9,20.9,0,0,0,20.67,20.72c11.18.05,21-10,20.79-21.26a21.17,21.17,0,0,0-21.09-20.37A20.78,20.78,0,0,0,262.45,238.09Z"/><path class="cls-1" d="M164.94,0h5c-.39,1.88-1.11,3.76-1.12,5.63-.08,24.33-.05,48.66-.05,73q0,41.25,0,82.5c0,6.7,0,6.7-6.47,6.71-4.67,0-9.33,0-14,0-10.59.09-15.53,5.07-15.53,15.64q0,70.75,0,141.49v6.11c-2.85-.64-5-1-7-1.58C39.86,306.65-12.38,223.6,3.84,135.72c13-70.24,73-126.09,143.94-133.88C153.49,1.22,159.22.61,164.94,0ZM135.6,138.16c11.7.09,21.24-9.23,21.16-20.66a20.83,20.83,0,0,0-41.65-.14A20.78,20.78,0,0,0,135.6,138.16Z"/><path class="cls-2" d="M164.94,0c-5.72.61-11.45,1.22-17.17,1.85C76.85,9.63,16.8,65.48,3.84,135.72c-16.22,87.87,36,170.93,121.9,193.78,2.07.55,4.18.94,7,1.58V325q0-70.75,0-141.49c0-10.58,4.94-15.55,15.53-15.64,4.67,0,9.33,0,14,0,6.46,0,6.46,0,6.47-6.71q0-41.25,0-82.5c0-24.33,0-48.66.05-73,0-1.88.73-3.76,1.12-5.63h166q0,167.5,0,335h-156c7.66-1.29,15.39-2.29,23-3.9A167.07,167.07,0,0,0,334.76,180.5C341.39,92.93,279,14.86,192.26,2.31a29.83,29.83,0,0,0-3.83,0c0,2.31,0,4.45,0,6.6q0,80.71,0,161.41c0,12.61-4.9,17.51-17.49,17.53H152.78c-.14,2-.34,3.49-.34,5q0,68.46-.08,136.93c0,2.89.73,4.63,3.57,5.28H0V0Z"/><path class="cls-2" d="M135.6,138.16a20.78,20.78,0,0,1-20.49-20.8,20.83,20.83,0,0,1,41.65.14C156.85,128.93,147.3,138.25,135.6,138.16Z"/></g></g></svg>