<?xml version="1.0" encoding="UTF-8"?>
<svg width="80px" height="40px" viewBox="0 0 80 40" version="1.1" xmlns="http://www.w3.org/2000/svg" xmlns:xlink="http://www.w3.org/1999/xlink">
    <!-- Generator: Sketch 45.2 (43514) - http://www.bohemiancoding.com/sketch -->
    <title>logoAndMenu</title>
    <desc>Created with Sketch.</desc>
    <defs>
        <polygon id="path-1" points="13.2144092 0.0432227471 13.2144092 2.79053373 6.20125496e-05 2.79053373 6.20125496e-05 0.0432227471 13.2144092 0.0432227471"></polygon>
    </defs>
    <g id="Symbols" stroke="none" stroke-width="1" fill="none" fill-rule="evenodd">
        <g id="UI/headerAlfaBg" transform="translate(-16.000000, -20.000000)">
            <g id="logoAndMenu" transform="translate(16.000000, 20.000000)">
                <path d="M56,28 L56,26.2222222 L80,26.2222222 L80,28 L56,28 Z M56,20.8888889 L56,19.1111111 L80,19.1111111 L80,20.8888889 L56,20.8888889 Z M56,12 L80,12 L80,13.7777778 L56,13.7777778 L56,12 Z" id="" fill="#FFFFFF" opacity="0.796161685"></path>
                <g id="Logo/alfaLogoCircle">
                    <g id="alfa-logo">
                        <circle id="Oval" fill="#F03226" cx="20" cy="20" r="20"></circle>
                        <g id="letter-a" transform="translate(13.333333, 10.000000)">
                            <g id="Group-3" transform="translate(0.000000, 17.794811)">
                                <mask id="mask-2" fill="white">
                                    <use xlink:href="#path-1"></use>
                                </mask>
                                <g id="Clip-2"></g>
                                <path d="M0.204393364,0.0432227471 C0.0913754919,0.0432227471 6.20125496e-05,0.136861697 6.20125496e-05,0.252670133 L6.20125496e-05,2.5813964 C6.20125496e-05,2.6975149 0.0913754919,2.79053373 0.204393364,2.79053373 L13.0116902,2.79053373 C13.1239329,2.79053373 13.2144712,2.6975149 13.2144712,2.5813964 L13.2144712,0.252670133 C13.2144712,0.136861697 13.1239329,0.0432227471 13.0116902,0.0432227471 L0.204393364,0.0432227471" id="Fill-1" fill="#FFFFFF" mask="url(#mask-2)"></path>
                            </g>
                            <path d="M4.77296642,8.73214214 L6.5972206,3.25565886 L6.61985518,3.25565886 L8.45031061,8.73214214 L4.77296642,8.73214214 Z M12.7240605,12.7024956 C12.6153835,12.4031301 8.97478175,2.43383754 8.81851012,2.00889655 C8.45031061,1.00382815 8.00971144,0 6.60807279,0 C5.20705426,0 4.7501768,1.01995141 4.39546502,2.00889655 C4.21190787,2.5191048 0.62696238,12.3280949 0.493015273,12.7024956 C0.454412461,12.8068317 0.504332563,12.9303918 0.613009556,12.9717851 C0.725407302,13.0153489 2.62562685,13.7515929 2.73662932,13.7957769 C2.84716669,13.8396508 2.96064965,13.7723671 2.996927,13.6731471 C3.03335937,13.5734619 3.82572472,11.3966664 3.91440267,11.1532671 L9.30840927,11.1532671 C9.39693218,11.3966664 10.1810809,13.5695861 10.2198387,13.6731471 C10.2582865,13.7770181 10.3761103,13.8351549 10.4806015,13.7957769 C10.5849376,13.756709 12.4769405,13.0209301 12.6059266,12.9717851 C12.7344476,12.9227952 12.7546017,12.7846623 12.7240605,12.7024956 L12.7240605,12.7024956 Z" id="Fill-4" fill="#FFFFFF"></path>
                        </g>
                    </g>
                </g>
            </g>
        </g>
    </g>
</svg>