<?xml version="1.0" encoding="UTF-8"?>
<svg width="12px" height="19px" viewBox="0 0 12 19" version="1.1" xmlns="http://www.w3.org/2000/svg" xmlns:xlink="http://www.w3.org/1999/xlink">
    <!-- Generator: Sketch 45.2 (43514) - http://www.bohemiancoding.com/sketch -->
    <title>Logo/logoYota</title>
    <desc>Created with Sketch.</desc>
    <defs></defs>
    <g id="Symbols" stroke="none" stroke-width="1" fill="none" fill-rule="evenodd">
        <g id="UI/inputField/inputOperator" transform="translate(-20.000000, -23.000000)" fill="#04AEEC">
            <g id="inputOperator">
                <g id="Logo/logoYota" transform="translate(20.000000, 23.000000)">
                    <g id="logoYota">
                        <path d="M1.30821429,0 L1.37964286,0 C1.42464286,0.0145253623 1.46871429,0.0333188406 1.51478571,0.0429565217 C2.30014286,0.206865942 2.67328571,0.647927536 2.6755,1.41784058 C2.67657143,1.77347101 2.66642857,2.12937681 2.67864286,2.4845942 C2.7395,4.25544928 4.10207143,5.65132971 5.82878571,5.71844928 C7.61007143,5.7877029 9.07021429,4.54196377 9.27007143,2.75362319 C9.32078571,2.29975725 9.25985714,1.83473913 9.30314286,1.37949638 C9.32928571,1.10447826 9.41621429,0.817688406 9.54907143,0.573235507 C9.74478571,0.213061594 10.1462857,0.11159058 10.5225,0 L10.6653571,0 C11.7105,0.293467391 11.9541429,0.60917029 11.9546429,1.67069203 C11.9547143,1.91149638 11.9548571,2.15230072 11.9545714,2.39310507 C11.9514286,5.08552899 10.2636429,7.29503623 7.59778571,8.07617029 C7.36835714,8.14342754 7.30935714,8.24372826 7.31364286,8.46023188 C7.32721429,9.14794928 7.33157143,9.83642391 7.31207143,10.5239348 C7.30492857,10.7757536 7.38942857,10.8748152 7.63842857,10.9465471 C9.36471429,11.4441268 10.5997857,12.4991775 11.3826429,14.0579348 C11.9065,15.1011449 11.9828571,16.2118877 11.959,17.3460362 C11.9378571,18.3520036 11.7542857,18.6417536 10.8082143,19 L10.4510714,19 C9.49907143,18.6511159 9.29342857,18.3597826 9.29278571,17.3591848 C9.29257143,17.0728768 9.29678571,16.7865688 9.29185714,16.5003986 C9.26328571,14.8619239 7.98964286,13.4816703 6.34321429,13.3024783 C4.69192857,13.1227355 3.13964286,14.1978877 2.781,15.8232826 C2.67128571,16.3201739 2.68707143,16.8465978 2.67992857,17.359942 C2.66571429,18.3703841 2.4755,18.6552464 1.5225,19 L1.16535714,19 C0.460071429,18.7887971 0.0160714286,18.3757536 0.0167857143,17.6191268 C0.0170714286,17.2864891 0.0147142857,16.9537826 0.0175714286,16.6212138 C0.0412857143,13.8848696 1.69521429,11.7343587 4.4085,10.9247246 C4.60142857,10.8671051 4.66842857,10.7887645 4.66485714,10.5923623 C4.652,9.89287319 4.65064286,9.19290217 4.665,8.49341304 C4.66992857,8.25343478 4.61457143,8.13323913 4.34621429,8.0655 C3.48078571,7.84706884 2.72085714,7.42480072 2.05421429,6.85101449 C0.250571429,5.29865942 -0.148714286,3.28789493 0.0440714286,1.08898913 C0.0556428571,0.956884058 0.119357143,0.822782609 0.184285714,0.702311594 C0.419428571,0.265724638 0.837285714,0.0912137681 1.30821429,0" id="Fill-1"></path>
                        <path d="M8.29377143,16.4910844 C8.29048571,17.7217475 7.24155714,18.720762 5.9652,18.7087149 C4.70548571,18.6968743 3.6822,17.7018525 3.67605714,16.4826859 C3.66977143,15.2536062 4.70998571,14.2521822 5.99162857,14.2533525 C7.2732,14.2545917 8.29705714,15.2497511 8.29377143,16.4910844" id="Fill-3"></path>
                    </g>
                </g>
            </g>
        </g>
    </g>
</svg>